<svg viewBox="0 0 121 32" fill="none" xmlns="http://www.w3.org/2000/svg">
<path d="M25.2025 0.644531V30.9842H18.0736V10.4992L15.2382 30.9763H10.1669L7.17758 10.9771V30.9842H0V0.644531H10.5314C10.8447 2.46716 11.1687 4.61618 11.5036 7.09161L12.7187 14.8156L14.582 0.644531H25.2025Z" fill="white"/>
<path d="M38.2535 20.1503C37.843 16.7139 37.4299 12.4681 37.014 7.41279C36.1823 13.2201 35.6611 17.4659 35.4505 20.1503H38.2535ZM42.5795 0.644531L47.2457 30.9763H38.8854L38.4479 25.4928H35.5315L35.0374 30.9763H26.6284L30.7843 0.644531H42.5795Z" fill="white"/>
<path d="M56.7887 30.9842H48.6309V0.644531H56.7887V30.9842Z" fill="white"/>
<path d="M77.3492 9.82395H69.7666V7.5757C69.8315 6.89441 69.7317 6.20784 69.4749 5.57029C69.367 5.42351 69.2212 5.30654 69.0521 5.23097C68.883 5.15539 68.6965 5.12385 68.5109 5.13945C68.2877 5.12888 68.0657 5.17725 67.8688 5.27937C67.6718 5.38149 67.5074 5.53351 67.3929 5.71913C67.103 6.26236 66.9714 6.87165 67.0122 7.4817C66.9645 8.2656 67.1089 9.04932 67.4334 9.76912C68.0328 10.5628 68.826 11.2006 69.7423 11.6257C73.3716 13.7147 75.6588 15.425 76.6039 16.7567C77.549 18.0884 78.0216 20.2427 78.0216 23.2195C78.1106 24.8501 77.8343 26.4802 77.2115 27.998C76.5335 29.1523 75.4755 30.0541 74.206 30.5596C72.5649 31.2833 70.776 31.6395 68.9727 31.6014C67.0355 31.6558 65.1147 31.244 63.3829 30.4029C62.0159 29.7833 60.936 28.6944 60.3531 27.3478C59.8075 25.645 59.5664 23.8648 59.6402 22.0836V20.1095H67.239V23.7991C67.1683 24.5441 67.2764 25.2947 67.555 25.9926C67.6832 26.1627 67.8556 26.2972 68.0547 26.3825C68.2538 26.4677 68.4726 26.5008 68.6891 26.4782C68.9267 26.4876 69.1626 26.4351 69.372 26.3262C69.5815 26.2174 69.7569 26.0562 69.88 25.8594C70.1804 25.294 70.3176 24.6607 70.2769 24.0263C70.2769 22.2403 70.0258 21.073 69.5235 20.5247C68.3488 19.4884 67.0707 18.5674 65.7079 17.7751C64.2947 16.9199 62.9416 15.9752 61.6574 14.9471C60.9375 14.261 60.3841 13.4289 60.0371 12.5109C59.5639 11.2384 59.344 9.89081 59.3891 8.53924C59.3891 6.21526 59.6969 4.51537 60.3126 3.43955C60.9921 2.30729 62.0363 1.42135 63.2857 0.917119C64.8494 0.275396 66.5373 -0.0344764 68.2355 0.00841847C70.0949 -0.0398394 71.9433 0.299468 73.6551 1.00329C74.9201 1.46755 75.9717 2.35387 76.6201 3.50222C77.1062 4.51014 77.3492 6.21787 77.3492 8.62541V9.82395Z" fill="white"/>
<path d="M91.0647 8.43711C91.12 7.52702 91.0381 6.61398 90.8216 5.72668C90.7448 5.53688 90.6058 5.37666 90.4258 5.27055C90.2458 5.16444 90.0349 5.11828 89.8252 5.13916C89.633 5.12979 89.4415 5.16891 89.2697 5.25269C89.0978 5.33646 88.9515 5.46201 88.845 5.61701C88.6181 5.93558 88.5047 6.87561 88.5047 8.43711V22.6003C88.4449 23.6911 88.5183 24.7849 88.7234 25.8591C88.7974 26.0611 88.9406 26.2326 89.1292 26.3451C89.3178 26.4577 89.5405 26.5046 89.7604 26.478C89.997 26.5008 90.2344 26.4417 90.4302 26.3111C90.626 26.1806 90.7676 25.9871 90.8297 25.7651C91.0413 24.6468 91.1201 23.5088 91.0647 22.3731V8.43711ZM99.2225 18.4093C99.2225 21.454 99.1496 23.6109 99.0037 24.8799C98.8559 26.1659 98.3551 27.3903 97.5531 28.4261C96.7512 29.4619 95.6773 30.2715 94.4428 30.7708C92.9699 31.3605 91.3866 31.6485 89.7928 31.6168C88.2475 31.644 86.7117 31.3779 85.2724 30.8335C84.0231 30.3506 82.9301 29.5533 82.1068 28.5244C81.2834 27.4955 80.7597 26.2723 80.5899 24.9817C80.3954 22.8015 80.317 20.613 80.355 18.425V13.2156C80.355 10.1657 80.4306 8.00888 80.5818 6.74505C80.7296 5.45903 81.2305 4.23464 82.0324 3.19883C82.8344 2.16301 83.9083 1.35348 85.1427 0.854162C86.613 0.265124 88.1935 -0.0229419 89.7847 0.00813045C91.33 -0.0192529 92.8658 0.246898 94.3051 0.791493C95.5544 1.27437 96.6474 2.07161 97.4707 3.10054C98.294 4.12947 98.8177 5.35264 98.9875 6.64321C99.1818 8.82347 99.2603 11.0119 99.2225 13.2V18.3937V18.4093Z" fill="white"/>
<path d="M120.48 0.644531V30.9842H113.327L109.09 17.1892V30.9842H102.269V0.644531H109.09L113.659 14.3064V0.644531H120.48Z" fill="white"/>
</svg>
