<svg viewBox="0 0 161 44" fill="none" xmlns="http://www.w3.org/2000/svg">
<path d="M33.6788 0.882812V42.8108H24.1522V14.5016L20.3632 42.8H13.5863L9.59158 15.1619V42.8108H0V0.882812H14.0734C14.492 3.40159 14.925 6.37145 15.3725 9.79237L16.9964 20.4665L19.4863 0.882812H33.6788Z" fill="#302F33"/>
<path d="M51.1189 27.8388C50.5704 23.09 50.0183 17.2224 49.4626 10.2362C48.3511 18.2617 47.6547 24.1292 47.3732 27.8388H51.1189ZM56.8998 0.882812L63.1354 42.8H51.9633L51.3787 35.222H47.4814L46.8211 42.8H35.584L41.1376 0.882812H56.8998Z" fill="#302F33"/>
<path d="M75.8878 42.8108H64.9863V0.882812H75.8878V42.8108Z" fill="#302F33"/>
<path d="M103.364 13.5709H93.2309V10.4639C93.3177 9.52236 93.1843 8.57355 92.8412 7.69249C92.6969 7.48964 92.5021 7.32799 92.2762 7.22355C92.0502 7.11912 91.8009 7.07552 91.5529 7.09708C91.2546 7.08248 90.958 7.14932 90.6948 7.29045C90.4317 7.43157 90.2118 7.64166 90.059 7.89818C89.6715 8.6489 89.4956 9.49091 89.5501 10.334C89.4865 11.4173 89.6793 12.5003 90.1131 13.4951C90.914 14.5918 91.974 15.4733 93.1984 16.0608C98.0483 18.9476 101.105 21.3112 102.368 23.1516C103.631 24.992 104.262 27.9691 104.262 32.0828C104.381 34.3363 104.012 36.589 103.18 38.6865C102.274 40.2818 100.86 41.528 99.1634 42.2265C96.9703 43.2267 94.5798 43.7189 92.17 43.6663C89.5813 43.7415 87.0145 43.1723 84.7002 42.01C82.8735 41.1537 81.4304 39.6489 80.6514 37.788C79.9223 35.4349 79.6001 32.9746 79.6988 30.5131V27.785H89.8533V32.8839C89.7587 33.9134 89.9032 34.9507 90.2755 35.9151C90.4469 36.1503 90.6772 36.3361 90.9433 36.454C91.2093 36.5718 91.5017 36.6174 91.7911 36.5863C92.1086 36.5992 92.4238 36.5267 92.7037 36.3763C92.9836 36.2258 93.218 36.003 93.3825 35.7311C93.7839 34.9498 93.9672 34.0746 93.9129 33.1979C93.9129 30.7296 93.5773 29.1166 92.9061 28.3588C91.3363 26.9267 89.6283 25.6538 87.8072 24.559C85.9187 23.3771 84.1105 22.0715 82.3944 20.6509C81.4324 19.7027 80.6929 18.5527 80.2292 17.2841C79.5968 15.5256 79.303 13.6632 79.3632 11.7954C79.3632 8.58381 79.7745 6.23463 80.5973 4.7479C81.5053 3.18318 82.9008 1.95884 84.5703 1.26202C86.66 0.375186 88.9156 -0.0530431 91.1848 0.00623568C93.6697 -0.0604545 96.1397 0.408452 98.4272 1.3811C100.118 2.02269 101.523 3.24755 102.389 4.8345C103.039 6.22741 103.364 8.58742 103.364 11.9145V13.5709Z" fill="#302F33"/>
<path d="M121.692 11.6545C121.766 10.3968 121.657 9.13505 121.367 7.90884C121.265 7.64654 121.079 7.42513 120.838 7.27849C120.598 7.13185 120.316 7.06807 120.036 7.09691C119.779 7.08396 119.523 7.13803 119.294 7.2538C119.064 7.36958 118.868 7.54308 118.726 7.75728C118.423 8.19752 118.271 9.49661 118.271 11.6545V31.2274C118.191 32.7349 118.289 34.2465 118.564 35.7309C118.662 36.0101 118.854 36.2471 119.106 36.4026C119.358 36.5581 119.655 36.6229 119.949 36.5862C120.265 36.6177 120.583 36.536 120.844 36.3556C121.106 36.1752 121.295 35.9078 121.378 35.601C121.661 34.0555 121.766 32.4828 121.692 30.9135V11.6545ZM132.594 25.4357C132.594 29.6433 132.496 32.6239 132.301 34.3777C132.104 36.1549 131.435 37.847 130.363 39.2784C129.291 40.7099 127.856 41.8286 126.206 42.5186C124.238 43.3335 122.122 43.7316 119.993 43.6878C117.928 43.7254 115.875 43.3576 113.952 42.6052C112.282 41.9379 110.822 40.8362 109.722 39.4143C108.621 37.9923 107.921 36.302 107.695 34.5184C107.435 31.5054 107.33 28.4811 107.381 25.4573V18.2582C107.381 14.0434 107.482 11.0627 107.684 9.31618C107.881 7.53896 108.55 5.84691 109.622 4.41546C110.694 2.98402 112.129 1.86528 113.779 1.17525C115.743 0.361221 117.855 -0.0368723 119.982 0.00606821C122.047 -0.0317743 124.099 0.336034 126.022 1.08864C127.692 1.75596 129.152 2.8577 130.253 4.27964C131.353 5.70157 132.053 7.39193 132.28 9.17545C132.539 12.1885 132.644 15.2128 132.594 18.2366V25.414V25.4357Z" fill="#302F33"/>
<path d="M161 0.882812V42.8108H151.441L145.779 23.7467V42.8108H136.664V0.882812H145.779L151.885 19.7629V0.882812H161Z" fill="#302F33"/>
</svg>
