<svg width="114" height="127" viewBox="0 0 114 127" fill="none" xmlns="http://www.w3.org/2000/svg">
<path opacity="0.2" d="M20.9647 111.384V109.848C20.8767 109.856 20.7807 109.864 20.6767 109.872C20.5727 109.88 20.4727 109.884 20.3767 109.884C19.9127 109.884 19.5047 109.8 19.1527 109.632C18.8007 109.464 18.5247 109.2 18.3247 108.84C18.1327 108.472 18.0367 107.996 18.0367 107.412V104.724C18.0367 104.172 18.1327 103.712 18.3247 103.344C18.5247 102.976 18.8007 102.7 19.1527 102.516C19.5127 102.332 19.9327 102.24 20.4127 102.24C20.5087 102.24 20.6087 102.244 20.7127 102.252C20.8167 102.252 20.9007 102.256 20.9647 102.264V100.56H22.5127V102.264C22.5847 102.256 22.6687 102.252 22.7647 102.252C22.8687 102.244 22.9647 102.24 23.0527 102.24C23.5487 102.24 23.9727 102.332 24.3247 102.516C24.6847 102.7 24.9607 102.98 25.1527 103.356C25.3527 103.724 25.4527 104.18 25.4527 104.724V107.412C25.4527 107.996 25.3567 108.472 25.1647 108.84C24.9727 109.2 24.7127 109.468 24.3847 109.644C24.0647 109.812 23.7047 109.896 23.3047 109.896C23.1767 109.896 23.0447 109.892 22.9087 109.884C22.7807 109.876 22.6487 109.868 22.5127 109.86V111.384H20.9647ZM20.6767 108.804C20.7247 108.804 20.7767 108.804 20.8327 108.804C20.8887 108.796 20.9327 108.788 20.9647 108.78V103.32C20.9087 103.312 20.8487 103.308 20.7847 103.308C20.7287 103.3 20.6727 103.296 20.6167 103.296C20.3847 103.296 20.1927 103.344 20.0407 103.44C19.8967 103.536 19.7887 103.688 19.7167 103.896C19.6447 104.104 19.6087 104.376 19.6087 104.712V107.424C19.6087 107.752 19.6367 108.016 19.6927 108.216C19.7567 108.416 19.8647 108.564 20.0167 108.66C20.1687 108.756 20.3887 108.804 20.6767 108.804ZM22.8487 108.792C23.1127 108.792 23.3167 108.748 23.4607 108.66C23.6127 108.572 23.7167 108.428 23.7727 108.228C23.8367 108.02 23.8687 107.752 23.8687 107.424V104.712C23.8687 104.368 23.8367 104.092 23.7727 103.884C23.7087 103.676 23.6047 103.528 23.4607 103.44C23.3247 103.344 23.1327 103.296 22.8847 103.296C22.8207 103.296 22.7567 103.3 22.6927 103.308C22.6287 103.308 22.5687 103.312 22.5127 103.32V108.768C22.5607 108.776 22.6127 108.784 22.6687 108.792C22.7327 108.792 22.7927 108.792 22.8487 108.792ZM30.5396 111.108C30.0356 111.108 29.6196 111.016 29.2916 110.832C28.9636 110.64 28.7156 110.364 28.5476 110.004C28.3876 109.644 28.3076 109.208 28.3076 108.696V106.368C28.3076 105.856 28.3876 105.42 28.5476 105.06C28.7156 104.7 28.9636 104.428 29.2916 104.244C29.6196 104.052 30.0356 103.956 30.5396 103.956C31.0436 103.956 31.4596 104.052 31.7876 104.244C32.1236 104.428 32.3716 104.7 32.5316 105.06C32.6996 105.42 32.7836 105.856 32.7836 106.368V108.696C32.7836 109.208 32.6996 109.644 32.5316 110.004C32.3716 110.364 32.1236 110.64 31.7876 110.832C31.4596 111.016 31.0436 111.108 30.5396 111.108ZM30.5516 109.98C30.7356 109.98 30.8716 109.928 30.9596 109.824C31.0476 109.72 31.1036 109.58 31.1276 109.404C31.1516 109.22 31.1636 109.02 31.1636 108.804V106.26C31.1636 106.044 31.1516 105.848 31.1276 105.672C31.1036 105.496 31.0476 105.356 30.9596 105.252C30.8716 105.14 30.7356 105.084 30.5516 105.084C30.3676 105.084 30.2316 105.14 30.1436 105.252C30.0556 105.356 29.9956 105.496 29.9636 105.672C29.9396 105.848 29.9276 106.044 29.9276 106.26V108.804C29.9276 109.02 29.9396 109.22 29.9636 109.404C29.9956 109.58 30.0556 109.72 30.1436 109.824C30.2316 109.928 30.3676 109.98 30.5516 109.98ZM36.4228 111V105.204H35.1508V104.064H39.3268V105.204H38.0428V111H36.4228ZM43.9365 111.108C43.4325 111.108 43.0165 111.016 42.6885 110.832C42.3605 110.64 42.1125 110.364 41.9445 110.004C41.7845 109.644 41.7045 109.208 41.7045 108.696V106.368C41.7045 105.856 41.7845 105.42 41.9445 105.06C42.1125 104.7 42.3605 104.428 42.6885 104.244C43.0165 104.052 43.4325 103.956 43.9365 103.956C44.4405 103.956 44.8565 104.052 45.1845 104.244C45.5205 104.428 45.7685 104.7 45.9285 105.06C46.0965 105.42 46.1805 105.856 46.1805 106.368V108.696C46.1805 109.208 46.0965 109.644 45.9285 110.004C45.7685 110.364 45.5205 110.64 45.1845 110.832C44.8565 111.016 44.4405 111.108 43.9365 111.108ZM43.9485 109.98C44.1325 109.98 44.2685 109.928 44.3565 109.824C44.4445 109.72 44.5005 109.58 44.5245 109.404C44.5485 109.22 44.5605 109.02 44.5605 108.804V106.26C44.5605 106.044 44.5485 105.848 44.5245 105.672C44.5005 105.496 44.4445 105.356 44.3565 105.252C44.2685 105.14 44.1325 105.084 43.9485 105.084C43.7645 105.084 43.6285 105.14 43.5405 105.252C43.4525 105.356 43.3925 105.496 43.3605 105.672C43.3365 105.848 43.3245 106.044 43.3245 106.26V108.804C43.3245 109.02 43.3365 109.22 43.3605 109.404C43.3925 109.58 43.4525 109.72 43.5405 109.824C43.6285 109.928 43.7645 109.98 43.9485 109.98ZM49.0974 111V104.064H52.2414V105.192H50.7294V111H49.0974ZM54.7646 113.28V104.064H56.3966V104.592C56.5966 104.4 56.8166 104.248 57.0566 104.136C57.2966 104.016 57.5486 103.956 57.8126 103.956C58.1246 103.956 58.3806 104.028 58.5806 104.172C58.7806 104.316 58.9366 104.508 59.0486 104.748C59.1606 104.98 59.2366 105.232 59.2766 105.504C59.3246 105.768 59.3486 106.024 59.3486 106.272V108.624C59.3486 109.08 59.2926 109.496 59.1806 109.872C59.0766 110.248 58.9046 110.548 58.6646 110.772C58.4326 110.996 58.1206 111.108 57.7286 111.108C57.4806 111.108 57.2446 111.048 57.0206 110.928C56.8046 110.808 56.5966 110.656 56.3966 110.472V113.28H54.7646ZM57.1166 109.968C57.2926 109.968 57.4206 109.912 57.5006 109.8C57.5886 109.68 57.6446 109.524 57.6686 109.332C57.7006 109.132 57.7166 108.916 57.7166 108.684V106.2C57.7166 105.984 57.7006 105.792 57.6686 105.624C57.6366 105.448 57.5766 105.308 57.4886 105.204C57.4006 105.1 57.2726 105.048 57.1046 105.048C56.9766 105.048 56.8486 105.08 56.7206 105.144C56.6006 105.2 56.4926 105.268 56.3966 105.348V109.728C56.5006 109.8 56.6126 109.86 56.7326 109.908C56.8526 109.948 56.9806 109.968 57.1166 109.968ZM63.6157 111.108C63.3037 111.108 63.0357 111.028 62.8117 110.868C62.5877 110.7 62.4157 110.492 62.2957 110.244C62.1757 109.988 62.1157 109.724 62.1157 109.452C62.1157 109.02 62.1957 108.656 62.3557 108.36C62.5157 108.064 62.7277 107.816 62.9917 107.616C63.2557 107.416 63.5557 107.244 63.8917 107.1C64.2277 106.948 64.5677 106.812 64.9117 106.692V106.092C64.9117 105.892 64.8957 105.724 64.8637 105.588C64.8397 105.452 64.7877 105.348 64.7077 105.276C64.6357 105.204 64.5197 105.168 64.3597 105.168C64.2237 105.168 64.1117 105.2 64.0237 105.264C63.9437 105.328 63.8837 105.42 63.8437 105.54C63.8117 105.652 63.7917 105.784 63.7837 105.936L63.7597 106.356L62.2117 106.296C62.2357 105.496 62.4317 104.908 62.7997 104.532C63.1757 104.148 63.7437 103.956 64.5037 103.956C65.1997 103.956 65.7037 104.148 66.0157 104.532C66.3357 104.916 66.4957 105.436 66.4957 106.092V109.296C66.4957 109.552 66.4997 109.784 66.5077 109.992C66.5237 110.2 66.5397 110.388 66.5557 110.556C66.5797 110.724 66.5997 110.872 66.6157 111H65.1517C65.1277 110.84 65.0957 110.66 65.0557 110.46C65.0237 110.252 64.9997 110.1 64.9837 110.004C64.9037 110.284 64.7517 110.54 64.5277 110.772C64.3037 110.996 63.9997 111.108 63.6157 111.108ZM64.2157 109.896C64.3197 109.896 64.4157 109.872 64.5037 109.824C64.5997 109.768 64.6837 109.704 64.7557 109.632C64.8277 109.56 64.8797 109.496 64.9117 109.44V107.508C64.7357 107.612 64.5677 107.716 64.4077 107.82C64.2557 107.924 64.1197 108.04 63.9997 108.168C63.8877 108.288 63.7997 108.42 63.7357 108.564C63.6797 108.708 63.6517 108.876 63.6517 109.068C63.6517 109.324 63.6997 109.528 63.7957 109.68C63.8997 109.824 64.0397 109.896 64.2157 109.896ZM72.0534 113.172V110.76H71.8974C71.6334 110.76 71.3574 110.724 71.0694 110.652C70.7814 110.58 70.5094 110.452 70.2534 110.268C69.9974 110.084 69.7854 109.824 69.6174 109.488C69.4574 109.152 69.3774 108.728 69.3774 108.216V106.596C69.3774 106.164 69.4454 105.792 69.5814 105.48C69.7254 105.168 69.9174 104.912 70.1574 104.712C70.3974 104.512 70.6654 104.368 70.9614 104.28C71.2574 104.184 71.5614 104.136 71.8734 104.136H72.0534V101.292H73.5054V104.136H73.7334C74.1494 104.136 74.5454 104.22 74.9214 104.388C75.2974 104.556 75.6014 104.82 75.8334 105.18C76.0734 105.54 76.1934 106.012 76.1934 106.596V108.216C76.1934 108.728 76.1134 109.152 75.9534 109.488C75.7934 109.824 75.5854 110.084 75.3294 110.268C75.0814 110.452 74.8134 110.58 74.5254 110.652C74.2374 110.724 73.9654 110.76 73.7094 110.76H73.5054V113.172H72.0534ZM71.9334 109.728H72.0534V105.108H71.9094C71.7174 105.108 71.5414 105.148 71.3814 105.228C71.2294 105.308 71.1054 105.444 71.0094 105.636C70.9214 105.828 70.8774 106.088 70.8774 106.416V108.276C70.8774 108.628 70.9174 108.912 70.9974 109.128C71.0854 109.336 71.2094 109.488 71.3694 109.584C71.5294 109.68 71.7174 109.728 71.9334 109.728ZM73.5054 109.728H73.6134C73.8294 109.728 74.0174 109.68 74.1774 109.584C74.3374 109.488 74.4614 109.336 74.5494 109.128C74.6454 108.912 74.6934 108.628 74.6934 108.276V106.416C74.6934 106.088 74.6454 105.828 74.5494 105.636C74.4614 105.444 74.3374 105.308 74.1774 105.228C74.0174 105.148 73.8374 105.108 73.6374 105.108H73.5054V109.728ZM79.1373 111V104.064H80.4693V108.24L82.4133 104.064H83.6853V111H82.3533V106.824L80.4453 111H79.1373ZM86.2821 111L87.4701 108.096C87.2621 108 87.0901 107.864 86.9541 107.688C86.8261 107.504 86.7301 107.288 86.6661 107.04C86.6021 106.784 86.5701 106.504 86.5701 106.2C86.5701 105.856 86.6141 105.552 86.7021 105.288C86.7981 105.024 86.9501 104.804 87.1581 104.628C87.3661 104.444 87.6381 104.304 87.9741 104.208C88.3101 104.112 88.7181 104.064 89.1981 104.064H91.1781V111H89.5701V108.396C89.4901 108.396 89.3901 108.396 89.2701 108.396C89.1501 108.388 89.0501 108.38 88.9701 108.372L88.0101 111H86.2821ZM89.4501 107.448C89.4661 107.448 89.4861 107.448 89.5101 107.448C89.5421 107.448 89.5621 107.448 89.5701 107.448V104.988C89.5621 104.988 89.5421 104.988 89.5101 104.988C89.4861 104.988 89.4701 104.988 89.4621 104.988C89.1261 104.988 88.8501 105.032 88.6341 105.12C88.4261 105.2 88.2741 105.328 88.1781 105.504C88.0901 105.68 88.0461 105.908 88.0461 106.188C88.0461 106.612 88.1541 106.928 88.3701 107.136C88.5941 107.336 88.9541 107.44 89.4501 107.448ZM1.01658 125V118.064H5.51658V125H3.88458V119.216H2.64858V125H1.01658ZM10.6588 125.108C10.1548 125.108 9.73877 125.016 9.41077 124.832C9.08277 124.64 8.83477 124.364 8.66677 124.004C8.50677 123.644 8.42677 123.208 8.42677 122.696V120.368C8.42677 119.856 8.50677 119.42 8.66677 119.06C8.83477 118.7 9.08277 118.428 9.41077 118.244C9.73877 118.052 10.1548 117.956 10.6588 117.956C11.1628 117.956 11.5788 118.052 11.9068 118.244C12.2428 118.428 12.4908 118.7 12.6508 119.06C12.8188 119.42 12.9028 119.856 12.9028 120.368V122.696C12.9028 123.208 12.8188 123.644 12.6508 124.004C12.4908 124.364 12.2428 124.64 11.9068 124.832C11.5788 125.016 11.1628 125.108 10.6588 125.108ZM10.6708 123.98C10.8548 123.98 10.9908 123.928 11.0788 123.824C11.1668 123.72 11.2228 123.58 11.2468 123.404C11.2708 123.22 11.2828 123.02 11.2828 122.804V120.26C11.2828 120.044 11.2708 119.848 11.2468 119.672C11.2228 119.496 11.1668 119.356 11.0788 119.252C10.9908 119.14 10.8548 119.084 10.6708 119.084C10.4868 119.084 10.3508 119.14 10.2628 119.252C10.1748 119.356 10.1148 119.496 10.0828 119.672C10.0588 119.848 10.0468 120.044 10.0468 120.26V122.804C10.0468 123.02 10.0588 123.22 10.0828 123.404C10.1148 123.58 10.1748 123.72 10.2628 123.824C10.3508 123.928 10.4868 123.98 10.6708 123.98ZM15.2942 126.824V123.98C15.5502 123.828 15.7742 123.64 15.9662 123.416C16.1662 123.184 16.3382 122.9 16.4822 122.564C16.6262 122.228 16.7382 121.824 16.8182 121.352C16.9062 120.88 16.9582 120.32 16.9742 119.672L17.0942 118.064H20.5862V123.944H21.5102V126.824H20.3342L20.2142 125H16.6022L16.4942 126.824H15.2942ZM16.9982 123.944H19.0622V119.108H18.3302L18.2462 120.044C18.2302 120.676 18.1862 121.212 18.1142 121.652C18.0422 122.092 17.9502 122.46 17.8382 122.756C17.7262 123.052 17.5982 123.292 17.4542 123.476C17.3102 123.66 17.1582 123.816 16.9982 123.944ZM24.147 125V118.064H27.291V119.192H25.779V125H24.147ZM31.8556 125.108C31.3516 125.108 30.9356 125.016 30.6076 124.832C30.2796 124.64 30.0316 124.364 29.8636 124.004C29.7036 123.644 29.6236 123.208 29.6236 122.696V120.368C29.6236 119.856 29.7036 119.42 29.8636 119.06C30.0316 118.7 30.2796 118.428 30.6076 118.244C30.9356 118.052 31.3516 117.956 31.8556 117.956C32.3596 117.956 32.7756 118.052 33.1036 118.244C33.4396 118.428 33.6876 118.7 33.8476 119.06C34.0156 119.42 34.0996 119.856 34.0996 120.368V122.696C34.0996 123.208 34.0156 123.644 33.8476 124.004C33.6876 124.364 33.4396 124.64 33.1036 124.832C32.7756 125.016 32.3596 125.108 31.8556 125.108ZM31.8676 123.98C32.0516 123.98 32.1876 123.928 32.2756 123.824C32.3636 123.72 32.4196 123.58 32.4436 123.404C32.4676 123.22 32.4796 123.02 32.4796 122.804V120.26C32.4796 120.044 32.4676 119.848 32.4436 119.672C32.4196 119.496 32.3636 119.356 32.2756 119.252C32.1876 119.14 32.0516 119.084 31.8676 119.084C31.6836 119.084 31.5476 119.14 31.4596 119.252C31.3716 119.356 31.3116 119.496 31.2796 119.672C31.2556 119.848 31.2436 120.044 31.2436 120.26V122.804C31.2436 123.02 31.2556 123.22 31.2796 123.404C31.3116 123.58 31.3716 123.72 31.4596 123.824C31.5476 123.928 31.6836 123.98 31.8676 123.98ZM37.7388 125V119.204H36.4668V118.064H40.6428V119.204H39.3588V125H37.7388ZM44.5785 125.108C44.2665 125.108 43.9985 125.028 43.7745 124.868C43.5505 124.7 43.3785 124.492 43.2585 124.244C43.1385 123.988 43.0785 123.724 43.0785 123.452C43.0785 123.02 43.1585 122.656 43.3185 122.36C43.4785 122.064 43.6905 121.816 43.9545 121.616C44.2185 121.416 44.5185 121.244 44.8545 121.1C45.1905 120.948 45.5305 120.812 45.8745 120.692V120.092C45.8745 119.892 45.8585 119.724 45.8265 119.588C45.8025 119.452 45.7505 119.348 45.6705 119.276C45.5985 119.204 45.4825 119.168 45.3225 119.168C45.1865 119.168 45.0745 119.2 44.9865 119.264C44.9065 119.328 44.8465 119.42 44.8065 119.54C44.7745 119.652 44.7545 119.784 44.7465 119.936L44.7225 120.356L43.1745 120.296C43.1985 119.496 43.3945 118.908 43.7625 118.532C44.1385 118.148 44.7065 117.956 45.4665 117.956C46.1625 117.956 46.6665 118.148 46.9785 118.532C47.2985 118.916 47.4585 119.436 47.4585 120.092V123.296C47.4585 123.552 47.4625 123.784 47.4705 123.992C47.4865 124.2 47.5025 124.388 47.5185 124.556C47.5425 124.724 47.5625 124.872 47.5785 125H46.1145C46.0905 124.84 46.0585 124.66 46.0185 124.46C45.9865 124.252 45.9625 124.1 45.9465 124.004C45.8665 124.284 45.7145 124.54 45.4905 124.772C45.2665 124.996 44.9625 125.108 44.5785 125.108ZM45.1785 123.896C45.2825 123.896 45.3785 123.872 45.4665 123.824C45.5625 123.768 45.6465 123.704 45.7185 123.632C45.7905 123.56 45.8425 123.496 45.8745 123.44V121.508C45.6985 121.612 45.5305 121.716 45.3705 121.82C45.2185 121.924 45.0825 122.04 44.9625 122.168C44.8505 122.288 44.7625 122.42 44.6985 122.564C44.6425 122.708 44.6145 122.876 44.6145 123.068C44.6145 123.324 44.6625 123.528 44.7585 123.68C44.8625 123.824 45.0025 123.896 45.1785 123.896ZM50.4603 125V118.064H52.6803C53.2643 118.064 53.7123 118.14 54.0243 118.292C54.3363 118.444 54.5483 118.648 54.6603 118.904C54.7803 119.152 54.8443 119.436 54.8523 119.756C54.8523 120.156 54.7723 120.48 54.6123 120.728C54.4603 120.968 54.2083 121.136 53.8563 121.232C54.1683 121.304 54.4083 121.424 54.5763 121.592C54.7443 121.76 54.8603 121.964 54.9243 122.204C54.9883 122.444 55.0203 122.708 55.0203 122.996C55.0203 123.42 54.9483 123.784 54.8043 124.088C54.6603 124.384 54.4163 124.612 54.0723 124.772C53.7283 124.924 53.2523 125 52.6443 125H50.4603ZM52.0803 123.968H52.4643C52.6483 123.968 52.8123 123.948 52.9563 123.908C53.1003 123.868 53.2163 123.776 53.3043 123.632C53.3923 123.48 53.4363 123.248 53.4363 122.936C53.4363 122.584 53.3963 122.328 53.3163 122.168C53.2363 122.008 53.1243 121.912 52.9803 121.88C52.8443 121.84 52.6843 121.82 52.5003 121.82H52.0803V123.968ZM52.0803 120.824H52.6323C52.8723 120.824 53.0483 120.752 53.1603 120.608C53.2803 120.464 53.3403 120.236 53.3403 119.924C53.3403 119.628 53.2763 119.408 53.1483 119.264C53.0203 119.112 52.8043 119.036 52.5003 119.036H52.0803V120.824ZM57.3124 125.072V123.884C57.5604 123.884 57.7604 123.84 57.9124 123.752C58.0644 123.664 58.1844 123.516 58.2724 123.308C58.3604 123.092 58.4284 122.804 58.4764 122.444C58.5244 122.076 58.5684 121.616 58.6084 121.064L58.8004 118.064H62.8324V125H61.2004V119.216H60.2044L60.0604 121.256C60.0124 122.016 59.9404 122.644 59.8444 123.14C59.7564 123.636 59.6204 124.024 59.4364 124.304C59.2604 124.584 59.0204 124.784 58.7164 124.904C58.4124 125.016 58.0244 125.072 57.5524 125.072H57.3124ZM65.8845 125V118.064H67.2165V122.24L69.1605 118.064H70.4325V125H69.1005V120.824L67.1925 125H65.8845ZM73.4853 125V118.064H75.7053C76.2893 118.064 76.7373 118.14 77.0493 118.292C77.3613 118.444 77.5733 118.648 77.6853 118.904C77.8053 119.152 77.8693 119.436 77.8773 119.756C77.8773 120.156 77.7973 120.48 77.6373 120.728C77.4853 120.968 77.2333 121.136 76.8813 121.232C77.1933 121.304 77.4333 121.424 77.6013 121.592C77.7693 121.76 77.8853 121.964 77.9493 122.204C78.0133 122.444 78.0453 122.708 78.0453 122.996C78.0453 123.42 77.9733 123.784 77.8293 124.088C77.6853 124.384 77.4413 124.612 77.0973 124.772C76.7533 124.924 76.2773 125 75.6693 125H73.4853ZM75.1053 123.968H75.4893C75.6733 123.968 75.8373 123.948 75.9813 123.908C76.1253 123.868 76.2413 123.776 76.3293 123.632C76.4173 123.48 76.4613 123.248 76.4613 122.936C76.4613 122.584 76.4213 122.328 76.3413 122.168C76.2613 122.008 76.1493 121.912 76.0053 121.88C75.8693 121.84 75.7093 121.82 75.5253 121.82H75.1053V123.968ZM75.1053 120.824H75.6573C75.8973 120.824 76.0733 120.752 76.1853 120.608C76.3053 120.464 76.3653 120.236 76.3653 119.924C76.3653 119.628 76.3013 119.408 76.1733 119.264C76.0453 119.112 75.8293 119.036 75.5253 119.036H75.1053V120.824ZM82.1489 125.108C81.8369 125.108 81.5689 125.028 81.3449 124.868C81.1209 124.7 80.9489 124.492 80.8289 124.244C80.7089 123.988 80.6489 123.724 80.6489 123.452C80.6489 123.02 80.7289 122.656 80.8889 122.36C81.0489 122.064 81.2609 121.816 81.5249 121.616C81.7889 121.416 82.0889 121.244 82.4249 121.1C82.7609 120.948 83.1009 120.812 83.4449 120.692V120.092C83.4449 119.892 83.4289 119.724 83.3969 119.588C83.3729 119.452 83.3209 119.348 83.2409 119.276C83.1689 119.204 83.0529 119.168 82.8929 119.168C82.7569 119.168 82.6449 119.2 82.5569 119.264C82.4769 119.328 82.4169 119.42 82.3769 119.54C82.3449 119.652 82.3249 119.784 82.3169 119.936L82.2929 120.356L80.7449 120.296C80.7689 119.496 80.9649 118.908 81.3329 118.532C81.7089 118.148 82.2769 117.956 83.0369 117.956C83.7329 117.956 84.2369 118.148 84.5489 118.532C84.8689 118.916 85.0289 119.436 85.0289 120.092V123.296C85.0289 123.552 85.0329 123.784 85.0409 123.992C85.0569 124.2 85.0729 124.388 85.0889 124.556C85.1129 124.724 85.1329 124.872 85.1489 125H83.6849C83.6609 124.84 83.6289 124.66 83.5889 124.46C83.5569 124.252 83.5329 124.1 83.5169 124.004C83.4369 124.284 83.2849 124.54 83.0609 124.772C82.8369 124.996 82.5329 125.108 82.1489 125.108ZM82.7489 123.896C82.8529 123.896 82.9489 123.872 83.0369 123.824C83.1329 123.768 83.2169 123.704 83.2889 123.632C83.3609 123.56 83.4129 123.496 83.4449 123.44V121.508C83.2689 121.612 83.1009 121.716 82.9409 121.82C82.7889 121.924 82.6529 122.04 82.5329 122.168C82.4209 122.288 82.3329 122.42 82.2689 122.564C82.2129 122.708 82.1849 122.876 82.1849 123.068C82.1849 123.324 82.2329 123.528 82.3289 123.68C82.4329 123.824 82.5729 123.896 82.7489 123.896ZM90.1306 125.108C89.6106 125.108 89.1866 125.012 88.8586 124.82C88.5306 124.62 88.2866 124.332 88.1266 123.956C87.9746 123.572 87.8986 123.112 87.8986 122.576V120.488C87.8986 119.936 87.9746 119.472 88.1266 119.096C88.2866 118.72 88.5306 118.436 88.8586 118.244C89.1946 118.052 89.6186 117.956 90.1306 117.956C90.6826 117.956 91.1106 118.06 91.4146 118.268C91.7266 118.476 91.9466 118.78 92.0746 119.18C92.2106 119.572 92.2786 120.052 92.2786 120.62V121.604H89.5186V122.972C89.5186 123.196 89.5386 123.38 89.5786 123.524C89.6266 123.668 89.6986 123.772 89.7946 123.836C89.8906 123.9 90.0066 123.932 90.1426 123.932C90.2866 123.932 90.4026 123.9 90.4906 123.836C90.5786 123.764 90.6426 123.664 90.6826 123.536C90.7226 123.4 90.7426 123.232 90.7426 123.032V122.456H92.2666V122.924C92.2666 123.628 92.0906 124.168 91.7386 124.544C91.3866 124.92 90.8506 125.108 90.1306 125.108ZM89.5186 120.8H90.7426V120.14C90.7426 119.9 90.7226 119.708 90.6826 119.564C90.6426 119.412 90.5786 119.304 90.4906 119.24C90.4026 119.168 90.2786 119.132 90.1186 119.132C89.9746 119.132 89.8586 119.168 89.7706 119.24C89.6826 119.312 89.6186 119.432 89.5786 119.6C89.5386 119.768 89.5186 120.008 89.5186 120.32V120.8ZM95.9552 125V119.204H94.6832V118.064H98.8592V119.204H97.5752V125H95.9552ZM103.539 125.108C103.003 125.108 102.571 125.008 102.243 124.808C101.923 124.6 101.687 124.308 101.535 123.932C101.391 123.548 101.319 123.096 101.319 122.576V120.488C101.319 119.952 101.391 119.496 101.535 119.12C101.687 118.744 101.927 118.456 102.255 118.256C102.583 118.056 103.011 117.956 103.539 117.956C104.035 117.956 104.439 118.036 104.751 118.196C105.071 118.348 105.303 118.584 105.447 118.904C105.591 119.216 105.663 119.612 105.663 120.092V120.668H104.127V120.056C104.127 119.816 104.107 119.628 104.067 119.492C104.035 119.348 103.975 119.248 103.887 119.192C103.799 119.128 103.683 119.096 103.539 119.096C103.395 119.096 103.279 119.136 103.191 119.216C103.103 119.288 103.039 119.408 102.999 119.576C102.967 119.744 102.951 119.976 102.951 120.272V122.816C102.951 123.264 102.999 123.568 103.095 123.728C103.191 123.88 103.343 123.956 103.551 123.956C103.711 123.956 103.831 123.92 103.911 123.848C103.999 123.776 104.055 123.672 104.079 123.536C104.111 123.392 104.127 123.22 104.127 123.02V122.276H105.663V122.936C105.663 123.4 105.587 123.796 105.435 124.124C105.291 124.452 105.059 124.7 104.739 124.868C104.427 125.028 104.027 125.108 103.539 125.108ZM108.08 125L109.268 122.096C109.06 122 108.888 121.864 108.752 121.688C108.624 121.504 108.528 121.288 108.464 121.04C108.4 120.784 108.368 120.504 108.368 120.2C108.368 119.856 108.412 119.552 108.5 119.288C108.596 119.024 108.748 118.804 108.956 118.628C109.164 118.444 109.436 118.304 109.772 118.208C110.108 118.112 110.516 118.064 110.996 118.064H112.976V125H111.368V122.396C111.288 122.396 111.188 122.396 111.068 122.396C110.948 122.388 110.848 122.38 110.768 122.372L109.808 125H108.08ZM111.248 121.448C111.264 121.448 111.284 121.448 111.308 121.448C111.34 121.448 111.36 121.448 111.368 121.448V118.988C111.36 118.988 111.34 118.988 111.308 118.988C111.284 118.988 111.268 118.988 111.26 118.988C110.924 118.988 110.648 119.032 110.432 119.12C110.224 119.2 110.072 119.328 109.976 119.504C109.888 119.68 109.844 119.908 109.844 120.188C109.844 120.612 109.952 120.928 110.168 121.136C110.392 121.336 110.752 121.44 111.248 121.448Z" fill="#302F33"/>
<path opacity="0.1" d="M100.249 0.186475C99.7849 -0.07277 99.2173 -0.0611326 98.7645 0.217806L93.6667 3.35555V1.46676C93.6667 0.656803 93.01 9.77904e-05 92.2 9.77904e-05H71.6667C71.2776 9.77904e-05 70.9047 0.154606 70.6295 0.429606L61.8295 9.2296C61.5545 9.50478 61.4 9.87771 61.4 10.2668V11.7334H33.9484L15.2353 0.217627C14.7827 -0.0609536 14.2148 -0.07277 13.7512 0.186475C13.2874 0.44554 13 0.935383 13 1.46676V66C13 66.81 13.6567 67.4667 14.4667 67.4667H42.3333V74.8C42.3333 75.1891 42.4878 75.562 42.7628 75.8372L54.4962 87.5705C54.7714 87.8455 55.1443 88 55.5333 88H76.0667C76.8766 88 77.5333 87.3433 77.5333 86.5333V74.8C77.5333 73.9901 76.8766 73.3333 76.0667 73.3333H70.8075L64.9409 67.4667H99.5333C100.343 67.4667 101 66.81 101 66V1.46676C101 0.935383 100.713 0.44554 100.249 0.186475ZM98.0667 4.09179V58.6667H81.9333V19.6743L85.4741 16.1334H92.2C93.01 16.1334 93.6667 15.4767 93.6667 14.6667V6.79989L98.0667 4.09179ZM64.3333 10.8742L72.2741 2.93343H90.7333V13.2001H84.8667C84.4776 13.2001 84.1047 13.3546 83.8295 13.6296L77.5333 19.9259L75.2075 17.6001L78.5705 14.2372C79.1432 13.6643 79.1432 12.7358 78.5705 12.1629L74.1705 7.76293C73.5976 7.19037 72.6691 7.19037 72.0962 7.76293L67.6962 12.1629C67.4212 12.4381 67.2667 12.811 67.2667 13.2001V17.6001H64.3333V10.8742ZM67.2667 46.9334H61.4V41.0667H67.2667V46.9334ZM52.6 46.9334H49.6667V41.0667H52.6V46.9334ZM49.6667 38.1334H40.8667V35.2001H49.6667V38.1334ZM43.8 41.0667H46.7333V52.8H43.8V41.0667ZM70.2 14.6667H73.9924L72.0962 16.5629C71.8098 16.8494 71.6666 17.2247 71.6666 17.6001H70.2V14.6667ZM72.2741 11.7334L73.1333 10.8742L73.9925 11.7334H72.2741ZM52.6 38.1334V35.2001H73.1333V38.1334H52.6ZM73.1333 32.2667H70.2V24.9334V20.5334H73.1333V32.2667ZM67.2667 23.4667H61.4V20.5334H62.8667H67.2667V23.4667ZM67.2667 26.4001V32.2667H61.4V26.4001H67.2667ZM58.4667 32.2667H55.5333V20.5334H58.4667V32.2667ZM55.5333 41.0667H58.4667V52.8H55.5333V41.0667ZM70.2 41.0667H73.1333V52.8H70.2V41.0667ZM61.4 17.6001H54.0667C53.2567 17.6001 52.6 18.2568 52.6 19.0667V32.2667H39.4C38.59 32.2667 37.9333 32.9234 37.9333 33.7334V39.6001C37.9333 40.41 38.59 41.0667 39.4 41.0667H40.8667V54.2667C40.8667 55.0767 41.5234 55.7334 42.3333 55.7334H48.2C49.01 55.7334 49.6667 55.0767 49.6667 54.2667V49.8667H52.6V54.2667C52.6 55.0767 53.2567 55.7334 54.0667 55.7334H59.9333C60.7433 55.7334 61.4 55.0767 61.4 54.2667V49.8667H67.2667V54.2667C67.2667 55.0767 67.9234 55.7334 68.7333 55.7334H74.6C75.41 55.7334 76.0667 55.0767 76.0667 54.2667V22.6077L76.4962 23.0372C76.7826 23.3235 77.1579 23.4667 77.5333 23.4667C77.9088 23.4667 78.284 23.3235 78.5705 23.0372L79 22.6077V58.6667H35V14.6667H61.4V17.6001ZM15.9333 4.09143L32.0667 14.0197V58.6667H15.9333V4.09143ZM70.2 76.2667H74.6V85.0667H56.1408L45.2667 74.1925V67.4667H48.2V71.8667C48.2 72.2557 48.3545 72.6287 48.6295 72.9038L55.9628 80.2372C56.5358 80.8097 57.4642 80.8097 58.0372 80.2372L62.4372 75.8372C63.0099 75.2643 63.0099 74.3358 62.4372 73.7629L59.0741 70.4L61.4 68.0742L69.1628 75.8372C69.438 76.1122 69.811 76.2667 70.2 76.2667ZM55.9628 71.4372L59.3259 74.8L57 77.1259L51.1333 71.2592V67.4667H57.859L55.9628 69.3629C55.3901 69.9358 55.3901 70.8643 55.9628 71.4372ZM98.0667 64.5334H15.9333V61.6H98.0667V64.5334Z" fill="#302F33"/>
</svg>
