<svg width="288" height="480" viewBox="0 0 288 480" fill="none" xmlns="http://www.w3.org/2000/svg">
<g opacity="0.02">
<path d="M127.929 134.872C127.483 131.742 125.235 129.168 122.193 128.304L10.193 96.3044C5.94398 95.0934 1.51798 97.5574 0.306976 101.806C0.103976 102.519 0.000976562 103.258 0.000976562 104V152C0.000976562 156.418 3.58298 160 8.00098 160C8.38098 160.001 8.76098 159.974 9.13698 159.92L121.137 143.92C125.512 143.297 128.552 139.246 127.929 134.872ZM16.001 142.776V114.608L81.729 133.384L16.001 142.776Z" fill="#302F33"/>
<path d="M149.22 177.907C147.764 176.668 145.913 175.992 144.001 176H8.00095C3.58295 176 0.000949761 179.582 0.000949761 184C-0.16705 226.164 21.963 265.278 58.193 286.848C59.4319 287.602 60.8549 288.001 62.305 288C64.654 288.003 66.8869 286.973 68.4089 285.184L150.129 189.184C152.993 185.819 152.586 180.77 149.22 177.907ZM60.801 269.48C34.975 251.752 18.61 223.242 16.329 192H126.721L60.801 269.48Z" fill="#302F33"/>
<path d="M288.001 184V8C288.001 3.582 284.419 2.09388e-07 280.001 2.09388e-07H104.001C99.583 -0.000999791 96 3.58 95.999 7.998C95.999 9.304 96.318 10.59 96.929 11.744C122.985 60.896 164.881 141.864 168.001 152.704V197.6L105.377 291.56C102.925 295.235 103.916 300.203 107.592 302.655C108.898 303.526 110.431 303.994 112.001 304H120.001V424H64.001C37.502 424.026 16.027 445.501 16.001 472C16.001 476.418 19.583 480 24.001 480H264.001C268.419 480 272.001 476.418 272.001 472C271.975 445.501 250.5 424.026 224.001 424H168.001V304C234.245 303.925 287.927 250.243 288.001 184ZM224.001 440C238.6 439.999 251.354 449.868 255.017 464H33.05C36.707 449.891 49.427 440.029 64.002 440H224.001ZM136.001 424V304H152.001V424H136.001ZM126.977 288L182.689 204.44C183.552 203.12 184.008 201.577 184.001 200V152C184.001 145.664 161.601 99.92 117.273 16H272.001V184C271.935 241.41 225.411 287.934 168.001 288H126.977Z" fill="#302F33"/>
<path d="M103.722 93.896L79.722 5.896C78.772 2.414 75.61 -0.00099969 72.001 3.10442e-07H8.00098C3.58298 3.10442e-07 0.000976873 3.582 0.000976873 8V72C-2.31271e-05 75.609 2.41498 78.771 5.89698 79.72L93.929 103.72C94.605 103.901 95.301 103.995 96.001 104C100.419 104.001 104.002 100.42 104.003 96.002C104.003 95.29 103.909 94.582 103.722 93.896ZM16.001 65.888V16H65.921L84.633 84.6L16.001 65.888Z" fill="#302F33"/>
</g>
</svg>
