<svg width="612" height="331" viewBox="0 0 612 331" fill="none" xmlns="http://www.w3.org/2000/svg">
<path opacity="0.02" d="M94 240.2H1.13249e-06V195.4L84.4 2.99998H134.8V202.2H171.2V240.2H134.8V327H94V240.2ZM94 202.2V55L41.2 202.2H94ZM300.959 330.6C274.293 330.6 254.159 321.933 240.559 304.6C227.226 287.267 220.559 264.067 220.559 235V95.4C220.559 65.8 227.093 42.6 240.159 25.8C253.493 8.73332 273.759 0.199987 300.959 0.199987C327.893 0.199987 347.893 8.73332 360.959 25.8C374.293 42.6 380.959 65.8 380.959 95.4V235C380.959 264.333 374.293 287.667 360.959 305C347.626 322.067 327.626 330.6 300.959 330.6ZM300.959 295.4C325.493 295.4 337.759 275.4 337.759 235.4V95C337.759 76.6 335.093 62.0667 329.759 51.4C324.693 40.4667 315.093 35 300.959 35C286.826 35 277.093 40.4667 271.759 51.4C266.426 62.0667 263.759 76.6 263.759 95V235.4C263.759 275.4 276.159 295.4 300.959 295.4ZM534 240.2H440V195.4L524.4 2.99998H574.8V202.2H611.2V240.2H574.8V327H534V240.2ZM534 202.2V55L481.2 202.2H534Z" fill="#302F33"/>
</svg>
